<svg xmlns="http://www.w3.org/2000/svg" viewBox="0 0 1380.96 208.052" role="img" aria-labelledby="sunarTitle">
  <title id="sunarTitle">SUNAR logo</title>
  <g fill="#ffffff" transform="translate(8.000005 -578.949000)">
    <path d="m 0,0 c 0,-25.042 -25.43,-43.484 -69.69,-43.484 -29.701,0 -58.237,9.318 -79.397,27.954 l 11.454,12.229 c 19.8,-17.47 41.736,-25.041 68.913,-25.041 32.807,0 52.025,10.288 52.025,27.177 0,16.5 -19.994,20.577 -56.683,23.683 -36.302,3.106 -71.05,11.065 -71.05,37.854 0,25.624 32.225,40.183 68.526,40.183 29.506,0 53.772,-10.288 69.496,-24.265 L -19.218,65.419 c -13.201,13.007 -33.195,19.801 -55.908,19.995 -24.265,0.194 -52.607,-6.601 -52.607,-24.46 0,-16.889 25.624,-20.383 57.654,-22.906 C -28.73,34.748 0,26.789 0,0" transform="matrix(1.3333333,0,0,-1.3333333,198.40627,721.02213)"/>
    <path d="m 0,0 v -71.826 c 0,-39.601 -24.848,-68.136 -71.631,-68.136 -46.784,0 -71.826,28.535 -71.826,68.136 V 0 h 16.306 v -70.855 c 0,-33.389 19.995,-53.966 55.52,-53.966 35.33,0 55.325,20.577 55.325,53.966 l 0,70.855 z" transform="matrix(1.3333333,0,0,-1.3333333,480.27293,592.38373)"/>
    <path d="M 0,0 V -135.886 H -14.365 L -128.51,-20.771 v -115.115 h -15.918 V 0 h 17.665 L -15.918,-112.009 V 0 Z" transform="matrix(1.3333333,0,0,-1.3333333,763.43453,592.38373)"/>
    <path d="m 0,0 h -18.248 l -74.737,-135.886 h 18.053 l 65.614,120.939 65.613,-120.939 h 18.442 z" transform="matrix(1.3333333,0,0,-1.3333333,978.00493,592.38373)"/>
    <path d="m 0,0 v -67.166 h 16.5 v 52.024 h 64.644 l 45.037,-52.024 h 21.353 l -46.395,52.607 c 25.042,2.912 42.124,17.665 42.124,41.348 0,26.789 -21.742,41.931 -52.025,41.931 H 0 V 53.578 h 26.614 63.46 c 21.935,0 36.495,-8.347 36.495,-26.789 C 126.569,8.347 112.009,0 90.074,0 h -63.46 z" transform="matrix(1.3333333,0,0,-1.3333333,1168.2448,684.01)"/>
  </g>
</svg>
